<?xml version="1.0" standalone="no"?>
<!DOCTYPE svg PUBLIC "-//W3C//DTD SVG 20010904//EN"
 "http://www.w3.org/TR/2001/REC-SVG-20010904/DTD/svg10.dtd">
<svg version="1.0" xmlns="http://www.w3.org/2000/svg"
 width="700.000000pt" height="700.000000pt" viewBox="0 0 700.000000 700.000000"
 preserveAspectRatio="xMidYMid meet">
<metadata>
Created by potrace 1.11, written by Peter Selinger 2001-2013
</metadata>
<g transform="translate(0.000000,700.000000) scale(0.100000,-0.100000)"
fill="#000000" stroke="none">
<path d="M3301 6375 c-174 -103 -363 -239 -521 -373 l-35 -30 50 -7 c420 -55
594 -94 964 -217 l245 -81 155 14 c193 17 637 17 791 0 147 -16 369 -55 488
-85 51 -13 92 -20 90 -16 -6 17 -177 164 -284 245 -349 264 -770 456 -1198
545 -171 36 -296 51 -476 56 l-175 5 -94 -56z"/>
<path d="M3085 6380 c-224 -34 -421 -85 -616 -159 -122 -47 -351 -162 -449
-226 l-85 -56 55 6 c30 3 192 8 360 11 l305 6 59 55 c102 94 236 197 374 287
72 48 132 89 132 91 0 6 11 7 -135 -15z"/>
<path d="M2547 5781 c-218 -224 -402 -464 -586 -760 -28 -46 -50 -85 -49 -86
2 -2 84 42 183 96 287 157 586 289 855 377 246 80 528 155 749 198 68 13 126
26 128 28 7 6 -356 123 -452 146 -197 46 -422 84 -643 108 l-72 8 -113 -115z"/>
<path d="M2070 5859 c-36 -5 -114 -16 -175 -26 l-110 -18 -80 -64 c-549 -442
-914 -1068 -1018 -1746 -25 -161 -28 -185 -20 -185 5 0 26 26 47 57 214 307
565 643 940 898 l108 74 82 139 c153 258 326 496 519 712 56 63 113 127 125
142 l24 28 -189 -1 c-103 -1 -217 -5 -253 -10z"/>
<path d="M4400 5608 c-254 -12 -253 -11 -69 -92 791 -349 1523 -930 1943
-1541 38 -55 74 -104 79 -110 24 -26 -44 321 -98 499 -110 363 -299 733 -492
965 -53 64 -98 118 -99 120 -2 2 -55 18 -119 36 -221 64 -497 111 -715 120
-63 3 -146 7 -185 9 -38 1 -149 -1 -245 -6z"/>
<path d="M3506 4978 c-3 -46 -10 -238 -16 -428 -6 -190 -13 -378 -16 -417 l-6
-73 53 0 52 0 -6 408 c-9 513 -14 592 -38 592 -15 0 -18 -13 -23 -82z"/>
<path d="M1580 4595 c-379 -288 -679 -603 -885 -931 l-55 -88 0 -121 c0 -498
172 -1045 471 -1495 91 -136 256 -346 265 -337 3 2 -4 26 -14 53 -48 120 -94
316 -129 544 -25 165 -25 748 0 930 66 474 169 842 342 1218 30 67 64 144 75
172 11 28 31 73 45 100 14 28 22 50 18 50 -5 0 -64 -43 -133 -95z"/>
<path d="M3428 3886 c-144 -39 -171 -120 -166 -486 l3 -194 39 -11 c22 -7 41
-16 43 -21 2 -5 -51 -201 -117 -436 -66 -235 -117 -434 -114 -441 2 -7 -50
-172 -117 -367 -102 -298 -122 -366 -126 -432 -12 -162 10 -115 283 619 142
383 266 705 275 716 15 19 16 16 22 -64 4 -46 12 -194 18 -329 8 -163 16 -250
24 -260 9 -11 14 -127 19 -435 4 -258 10 -421 16 -423 6 -2 10 -40 10 -84 0
-45 2 -79 5 -76 14 13 27 215 39 605 8 232 16 426 20 431 3 5 15 121 26 258
12 137 22 252 23 257 1 4 62 -264 136 -595 74 -332 138 -618 143 -635 12 -44
28 -42 28 2 0 19 5 43 11 53 9 14 -8 109 -76 427 -55 260 -85 422 -81 443 3
18 -17 191 -45 384 -27 193 -49 361 -49 373 0 16 8 25 26 29 l26 7 -4 272 c-4
300 -11 336 -69 377 -64 47 -177 61 -271 36z m119 -177 c79 -30 99 -106 42
-160 -54 -50 -152 -34 -179 30 -23 56 5 112 66 131 39 11 39 11 71 -1z"/>
<path d="M2520 3660 c-239 -10 -436 -18 -437 -19 -2 0 -3 -10 -3 -21 0 -16 7
-20 38 -20 20 0 208 -7 417 -15 209 -8 413 -15 453 -15 l72 0 0 55 0 55 -52
-2 c-29 0 -249 -9 -488 -18z"/>
<path d="M3964 3647 c-3 -8 -4 -32 -2 -53 l3 -38 95 2 c52 2 280 10 505 17
226 8 413 15 418 15 4 0 7 9 7 19 0 17 -12 19 -152 25 -84 3 -307 8 -496 11
-189 3 -350 9 -358 12 -7 3 -16 -2 -20 -10z"/>
<path d="M6349 3658 c0 -2 -2 -61 -4 -133 -3 -175 -12 -225 -37 -225 -21 0
-93 -35 -103 -49 -12 -21 32 -31 69 -16 19 8 49 15 66 15 36 0 85 -23 93 -43
6 -15 57 -12 57 3 0 20 -54 70 -86 80 -25 9 -33 16 -30 28 2 10 6 89 8 177 3
146 1 160 -14 163 -10 2 -18 2 -19 0z"/>
<path d="M6302 3198 c-20 -20 -14 -66 9 -79 33 -17 69 3 69 39 0 33 -16 52
-45 52 -12 0 -26 -5 -33 -12z"/>
<path d="M6191 3121 c-22 -14 13 -60 60 -80 39 -16 39 -17 33 -56 -19 -121
-90 -349 -160 -517 l-45 -106 -55 1 c-60 1 -82 -11 -66 -39 7 -13 23 -18 60
-18 61 -1 103 -28 117 -74 7 -24 15 -32 32 -32 13 0 23 2 23 5 0 18 -35 84
-55 105 l-23 25 40 95 c82 194 152 410 175 540 8 41 11 45 46 52 46 9 87 35
87 54 0 22 -29 28 -49 10 -42 -38 -127 -28 -171 19 -26 28 -29 29 -49 16z"/>
<path d="M6000 2250 c-23 -23 -24 -33 -10 -61 12 -22 59 -26 78 -7 19 19 14
55 -10 72 -29 20 -34 20 -58 -4z"/>
<path d="M5876 2241 c-8 -13 10 -59 39 -97 l24 -31 -42 -69 c-22 -38 -63 -100
-90 -138 -60 -85 -62 -88 -38 -103 17 -11 25 -2 83 80 36 51 79 118 97 150 28
49 36 57 54 52 12 -4 30 -9 39 -11 9 -3 33 2 53 10 32 14 35 17 23 36 -8 13
-18 18 -28 13 -57 -27 -152 18 -168 80 -8 31 -34 48 -46 28z"/>
<path d="M5581 1606 c-57 -64 -157 -168 -224 -233 -122 -118 -122 -118 -119
-160 2 -25 8 -43 15 -43 14 0 196 182 283 285 70 81 188 235 182 239 -1 1 -10
7 -19 14 -14 11 -30 -3 -118 -102z"/>
<path d="M4983 1584 c-73 -35 -133 -66 -133 -68 0 -2 9 -26 21 -53 11 -26 25
-58 30 -71 l9 -22 50 25 50 25 -29 59 -30 58 43 21 44 21 36 -232 c47 -291 41
-270 74 -253 65 35 64 15 23 295 -20 140 -40 256 -46 257 -5 1 -70 -27 -142
-62z"/>
<path d="M1489 1534 c-12 -15 -6 -24 51 -75 36 -33 95 -83 133 -111 47 -37 66
-57 61 -68 -11 -27 -17 -140 -7 -140 21 0 33 27 33 72 0 63 43 115 102 124 32
6 39 10 36 28 -2 17 -9 21 -37 19 -18 -1 -46 -10 -60 -21 l-27 -20 -50 36
c-27 19 -86 66 -130 104 -45 37 -84 68 -87 68 -2 0 -11 -7 -18 -16z"/>
<path d="M4708 1486 c-63 -17 -123 -58 -136 -93 -7 -22 -5 -41 10 -82 21 -57
24 -57 93 -31 30 11 30 16 5 75 -11 26 -20 53 -20 61 0 20 47 41 61 27 18 -18
88 -184 83 -196 -2 -7 -24 -20 -49 -30 -25 -11 -45 -23 -45 -28 0 -13 21 -10
50 6 14 8 36 14 50 15 22 0 30 -11 69 -102 47 -110 47 -130 -3 -136 -23 -3
-29 3 -52 58 -15 33 -32 59 -38 56 -6 -3 -28 -10 -48 -17 -21 -7 -38 -16 -38
-20 0 -18 39 -95 54 -108 34 -29 177 11 224 62 27 30 20 92 -20 179 -33 71
-39 77 -72 83 -34 7 -35 8 -21 28 22 31 18 71 -10 127 -25 50 -58 81 -85 79
-8 0 -36 -6 -62 -13z"/>
<path d="M4413 1339 c-85 -16 -173 -82 -173 -132 0 -12 15 -49 33 -81 34 -60
70 -84 107 -70 8 3 4 -6 -9 -20 -33 -36 -30 -68 15 -161 36 -74 42 -80 72 -83
78 -8 185 46 217 109 14 27 13 33 -24 114 -31 65 -46 87 -67 95 -15 6 -33 9
-40 6 -8 -3 -6 7 6 27 27 43 25 62 -13 131 -36 67 -55 77 -124 65z m29 -129
c21 -49 35 -96 32 -104 -4 -10 -18 -16 -38 -16 -30 0 -33 4 -69 91 -21 50 -36
98 -33 105 3 8 19 14 38 14 32 0 34 -3 70 -90z m108 -239 c48 -112 49 -135 4
-139 -29 -3 -31 0 -76 101 -50 114 -49 137 1 137 27 0 32 -7 71 -99z"/>
<path d="M1983 1293 c-8 -2 -13 -22 -13 -45 0 -22 -7 -52 -16 -68 -18 -29 -62
-60 -87 -60 -12 0 -27 -19 -27 -36 0 -2 12 -4 26 -4 30 0 94 28 94 41 0 16 15
10 141 -57 162 -88 344 -171 444 -204 77 -26 80 -28 87 -65 9 -40 37 -95 50
-95 4 0 12 9 18 20 8 15 6 27 -10 52 -11 18 -20 44 -20 56 0 36 30 92 60 111
15 10 24 23 22 34 -7 36 -57 9 -93 -50 -12 -21 -24 -40 -25 -42 -4 -4 -228 83
-324 126 -41 19 -127 64 -191 100 l-117 65 10 35 c9 34 3 94 -10 92 -4 0 -13
-3 -19 -6z"/>
<path d="M1852 1274 c-24 -17 -29 -53 -10 -72 19 -19 66 -15 78 7 14 28 13 38
-10 61 -24 24 -29 24 -58 4z"/>
<path d="M4098 1206 c-54 -20 -75 -41 -42 -41 12 0 39 -57 99 -210 70 -176 81
-212 69 -221 -8 -6 -14 -15 -14 -19 0 -10 37 0 106 31 46 21 55 28 41 33 -14
5 -44 72 -104 229 -47 122 -88 221 -92 221 -3 -1 -31 -11 -63 -23z"/>
<path d="M2854 952 c-9 -14 -9 -24 2 -43 28 -50 8 -146 -35 -169 -22 -11 -29
-40 -10 -40 6 0 29 18 51 39 l39 40 77 -15 c68 -13 264 -43 285 -44 4 0 7 9 7
19 0 22 -11 26 -85 36 -27 3 -100 15 -162 26 l-112 21 5 28 c6 28 -27 120 -43
120 -5 0 -13 -8 -19 -18z"/>
<path d="M2748 869 c-21 -12 -24 -59 -6 -77 19 -19 55 -14 72 10 20 29 20 34
-4 58 -22 22 -37 24 -62 9z"/>
<path d="M3965 769 c-66 -5 -209 -11 -317 -15 -185 -6 -198 -7 -198 -25 0 -22
10 -25 148 -39 189 -19 568 -7 593 19 4 3 0 21 -7 39 -16 37 -5 35 -219 21z"/>
</g>
</svg>
