<?xml version="1.0" standalone="no"?>
<!DOCTYPE svg PUBLIC "-//W3C//DTD SVG 20010904//EN"
 "http://www.w3.org/TR/2001/REC-SVG-20010904/DTD/svg10.dtd">
<svg version="1.0" xmlns="http://www.w3.org/2000/svg"
 width="700.000000pt" height="700.000000pt" viewBox="0 0 700.000000 700.000000"
 preserveAspectRatio="xMidYMid meet">
<metadata>
Created by potrace 1.11, written by Peter Selinger 2001-2013
</metadata>
<g transform="translate(0.000000,700.000000) scale(0.100000,-0.100000)"
fill="#000000" stroke="none">
<path d="M3304 6377 c-108 -64 -256 -163 -339 -226 -87 -66 -216 -174 -212
-178 2 -1 73 -12 158 -23 305 -41 551 -100 859 -207 224 -77 211 -76 540 -54
392 26 810 -10 1148 -98 40 -11 72 -15 70 -10 -6 16 -173 161 -284 245 -287
216 -632 390 -972 488 -247 72 -454 105 -702 112 l-175 5 -91 -54z"/>
<path d="M3085 6380 c-397 -61 -768 -194 -1069 -385 -91 -58 -86 -62 49 -46
52 6 204 11 340 11 l246 0 94 84 c117 104 207 172 358 270 64 42 117 79 117
81 0 6 11 7 -135 -15z"/>
<path d="M2537 5771 c-217 -223 -403 -466 -589 -769 -21 -34 -38 -65 -38 -68
0 -3 21 6 48 21 256 145 525 276 747 365 271 107 669 222 989 284 71 14 131
27 133 30 7 7 -358 124 -467 150 -193 44 -405 80 -628 104 l-73 8 -122 -125z"/>
<path d="M2070 5859 c-36 -5 -114 -16 -175 -26 l-110 -18 -100 -79 c-453 -362
-796 -896 -945 -1473 -41 -157 -88 -444 -72 -442 4 0 45 52 91 115 215 293
546 602 905 846 l98 67 82 139 c153 258 326 496 519 712 56 63 113 127 125
142 l24 28 -189 -1 c-103 -1 -217 -5 -253 -10z"/>
<path d="M4395 5608 c-248 -12 -247 -11 -64 -92 775 -343 1484 -899 1915
-1501 43 -61 87 -122 97 -135 17 -25 17 -25 11 30 -31 284 -155 673 -314 985
-102 200 -168 303 -281 440 l-94 115 -81 25 c-350 107 -761 153 -1189 133z"/>
<path d="M3506 4988 c-3 -40 -10 -235 -16 -433 -6 -198 -13 -390 -16 -427 l-6
-68 53 0 52 0 -6 408 c-9 512 -14 592 -38 592 -14 0 -18 -12 -23 -72z"/>
<path d="M1610 4618 c-393 -294 -700 -614 -915 -953 l-57 -90 6 -175 c3 -96
12 -221 20 -278 67 -450 253 -907 513 -1261 73 -99 194 -243 199 -238 3 2 -5
29 -17 58 -35 89 -96 344 -120 504 -21 134 -23 186 -24 490 0 362 5 429 61
740 68 378 196 753 414 1213 16 34 26 62 22 62 -4 0 -50 -33 -102 -72z"/>
<path d="M3430 3887 c-65 -18 -115 -52 -133 -90 -25 -53 -37 -177 -37 -392 l0
-203 41 -7 c22 -4 42 -12 45 -18 2 -7 -50 -204 -116 -439 -66 -235 -117 -434
-114 -441 2 -7 -50 -171 -116 -363 -105 -302 -122 -360 -127 -431 -12 -168 9
-124 281 610 142 380 265 703 274 717 17 25 17 25 23 -40 4 -36 12 -184 19
-330 9 -179 17 -270 25 -280 9 -11 14 -124 19 -435 4 -261 10 -421 16 -423 6
-2 10 -42 10 -89 0 -48 2 -84 5 -81 13 12 27 229 39 598 8 223 19 439 25 480
5 41 18 170 27 285 13 152 20 200 25 175 10 -45 267 -1198 274 -1228 8 -33 25
-17 25 24 0 19 5 42 11 52 9 14 -8 107 -76 427 -55 262 -85 422 -81 443 3 18
-17 192 -44 385 -28 194 -50 362 -50 373 0 15 8 24 26 28 l26 7 -4 272 c-3
267 -3 273 -28 322 -20 39 -35 55 -73 74 -57 29 -169 37 -237 18z m117 -178
c79 -30 99 -106 42 -160 -54 -50 -152 -34 -179 30 -23 56 5 112 66 131 39 11
39 11 71 -1z"/>
<path d="M2520 3660 c-239 -10 -436 -18 -437 -19 -2 0 -3 -10 -3 -21 0 -16 7
-20 38 -20 20 0 206 -7 412 -15 206 -8 410 -15 453 -15 l77 0 0 55 0 55 -52
-1 c-29 -1 -249 -10 -488 -19z"/>
<path d="M3964 3647 c-3 -8 -4 -32 -2 -53 l3 -38 100 2 c55 2 282 9 505 17
223 8 408 15 413 15 4 0 7 9 7 19 0 17 -11 19 -142 25 -79 3 -302 8 -496 11
-194 4 -360 9 -368 12 -7 3 -16 -2 -20 -10z"/>
<path d="M6349 3658 c0 -2 -2 -61 -4 -133 -1 -71 -6 -151 -10 -176 -7 -44 -9
-47 -43 -53 -21 -3 -50 -16 -66 -29 -29 -24 -30 -24 -9 -35 16 -9 29 -8 57 3
19 8 49 15 66 15 36 0 85 -23 93 -43 6 -15 57 -12 57 3 0 19 -53 69 -83 79
l-32 11 7 167 c5 93 6 174 3 181 -4 10 -33 18 -36 10z"/>
<path d="M6297 3189 c-29 -41 12 -92 58 -71 46 21 31 92 -20 92 -13 0 -30 -9
-38 -21z"/>
<path d="M6191 3121 c-22 -14 13 -60 60 -80 38 -15 40 -18 34 -51 -22 -131
-92 -356 -162 -522 l-45 -106 -54 1 c-60 1 -82 -11 -66 -39 7 -13 23 -18 60
-18 61 -1 103 -28 117 -74 7 -24 15 -32 33 -32 18 0 23 4 18 16 -3 9 -6 22 -6
30 0 8 -15 31 -34 52 l-35 38 35 79 c78 177 154 410 178 540 11 58 12 59 49
67 74 15 109 56 67 78 -14 8 -20 8 -20 0 0 -6 -16 -18 -37 -26 -47 -20 -94
-11 -137 26 -38 34 -36 33 -55 21z"/>
<path d="M5999 2251 c-20 -16 -22 -23 -14 -47 18 -52 95 -42 95 12 0 20 -32
54 -51 54 -4 0 -17 -9 -30 -19z"/>
<path d="M5876 2241 c-8 -13 10 -59 39 -97 l24 -31 -42 -69 c-22 -38 -63 -100
-90 -138 -60 -85 -62 -88 -38 -103 16 -10 24 -3 73 65 31 42 74 109 98 147 23
39 43 71 44 72 1 1 19 -2 39 -8 27 -7 44 -6 72 5 32 14 35 17 23 36 -8 13 -18
18 -28 13 -57 -27 -152 18 -168 80 -8 31 -34 48 -46 28z"/>
<path d="M5572 1597 c-61 -68 -161 -172 -223 -231 -111 -107 -113 -109 -110
-150 2 -22 5 -45 8 -50 7 -11 150 131 262 259 89 102 216 265 209 269 -1 1
-10 7 -19 14 -15 11 -31 -4 -127 -111z"/>
<path d="M4983 1584 c-73 -35 -133 -65 -133 -68 0 -2 7 -20 15 -40 8 -20 22
-52 30 -71 l14 -36 51 26 50 25 -29 59 -30 58 43 21 43 20 37 -231 c46 -290
41 -270 74 -253 66 35 64 15 24 295 -21 140 -41 256 -47 257 -5 1 -70 -27
-142 -62z"/>
<path d="M1489 1534 c-12 -15 -6 -24 51 -75 36 -33 95 -83 133 -111 47 -37 66
-57 61 -68 -11 -27 -17 -140 -7 -140 20 0 33 26 33 71 0 68 57 129 120 129 16
0 21 5 18 23 -2 18 -9 22 -37 20 -18 -1 -46 -10 -60 -21 l-27 -20 -50 36 c-27
19 -86 66 -130 104 -45 37 -84 68 -87 68 -2 0 -11 -7 -18 -16z"/>
<path d="M4709 1486 c-66 -18 -112 -47 -131 -85 -16 -32 -16 -36 2 -84 10 -27
21 -51 23 -54 8 -8 89 20 93 32 3 6 -4 33 -16 59 -26 62 -25 74 5 88 33 15 38
9 86 -98 43 -97 42 -100 -21 -129 -22 -10 -40 -22 -40 -27 0 -12 22 -9 50 7
14 8 36 14 50 14 22 1 30 -11 69 -101 46 -110 46 -130 -2 -136 -22 -3 -28 4
-53 58 -15 33 -32 59 -38 56 -6 -3 -28 -10 -48 -17 -21 -7 -38 -16 -38 -20 0
-18 39 -95 54 -108 33 -27 161 6 218 56 34 31 32 74 -7 167 -38 87 -55 106
-95 106 -20 0 -20 1 -6 22 23 32 20 71 -9 127 -42 85 -57 91 -146 67z"/>
<path d="M4413 1340 c-86 -17 -173 -84 -173 -132 0 -11 14 -47 32 -80 32 -61
64 -84 101 -74 17 4 17 2 -4 -20 -32 -34 -28 -68 17 -159 36 -73 42 -80 72
-83 79 -8 185 46 218 110 15 28 13 32 -28 116 -36 72 -48 88 -75 97 -30 10
-31 11 -18 35 21 36 18 54 -15 121 -20 39 -39 63 -56 69 -14 6 -26 10 -27 9
-1 -1 -21 -5 -44 -9z m29 -130 c21 -49 35 -96 32 -104 -4 -10 -18 -16 -38 -16
-30 0 -33 4 -69 91 -21 50 -36 98 -33 105 3 8 19 14 38 14 32 0 34 -3 70 -90z
m107 -239 c49 -112 50 -135 6 -139 -30 -3 -32 0 -76 102 -50 113 -50 136 0
136 26 0 31 -8 70 -99z"/>
<path d="M1983 1293 c-8 -3 -13 -23 -13 -50 0 -39 -5 -50 -39 -84 -21 -22 -48
-39 -59 -39 -16 0 -32 -17 -32 -36 0 -2 12 -4 26 -4 31 0 94 28 94 42 0 15 15
9 190 -84 176 -92 292 -145 405 -183 66 -23 70 -26 78 -61 8 -39 36 -94 49
-94 4 0 12 9 18 20 8 15 6 27 -10 52 -11 18 -20 44 -20 56 0 36 30 92 60 111
27 17 30 51 5 51 -21 0 -71 -47 -85 -80 -7 -16 -14 -30 -17 -30 -10 0 -256 97
-323 127 -41 19 -127 64 -191 100 l-117 65 10 35 c9 34 3 94 -10 92 -4 0 -13
-3 -19 -6z"/>
<path d="M1852 1274 c-12 -8 -22 -26 -22 -38 0 -54 77 -64 95 -12 8 24 6 31
-14 47 -28 23 -31 23 -59 3z"/>
<path d="M4097 1206 c-56 -21 -75 -41 -41 -41 12 0 39 -58 99 -210 74 -187 81
-211 67 -222 -33 -26 0 -25 68 1 68 27 96 46 66 46 -14 0 -25 26 -151 353 -20
53 -40 97 -44 96 -3 0 -32 -11 -64 -23z"/>
<path d="M2854 952 c-9 -14 -9 -24 2 -43 28 -50 8 -146 -35 -169 -19 -10 -30
-40 -15 -40 16 0 64 36 75 57 9 17 19 23 34 19 29 -7 241 -43 303 -51 48 -6
52 -5 52 13 0 23 -11 27 -85 37 -27 3 -100 15 -162 26 l-112 21 5 28 c6 28
-27 120 -43 120 -5 0 -13 -8 -19 -18z"/>
<path d="M2748 869 c-21 -12 -24 -59 -6 -77 20 -20 56 -14 74 13 15 23 15 27
0 50 -17 26 -40 31 -68 14z"/>
<path d="M4110 778 c-50 -6 -516 -28 -617 -28 -36 0 -43 -3 -43 -20 0 -23 8
-25 142 -40 179 -19 575 -7 599 18 4 4 -1 23 -10 42 l-16 36 -55 -8z"/>
</g>
</svg>
